# xmcd
#
# Track frame offsets: 
#        150
#        11513
#        23546
#        34845
#        45555
#        55356
#        70031
#        79185
#        87001
#        100323
#        113729
#        128445
#        140597
#        157128
#        164547
#        178345
#
# Disc length: 2512 seconds
#
# Revision: 4
# Processed by: cddbd v1.5.2PL0 Copyright (c) Steve Scherf et al.
# Submitted via: ExactAudioCopyFreeDBPlugin 1.0
#
DISCID=cd09ce10
DTITLE=Kasey Chambers, Poppa Bill And The Little Hillbillies - Kasey C
DTITLE=hambers, Poppa Bill And The Little Hillbillies
DYEAR=2009
DGENRE=Country
TTITLE0=The Lost Music Blues
TTITLE1=The Balad Of Poppa Bill
TTITLE2=I Spy
TTITLE3=Poppa Bill Says
TTITLE4=Dad, Do You Remember?
TTITLE5=Before You Came Along
TTITLE6=Two Houses
TTITLE7=Old Man Down On The Farm
TTITLE8=My Oh My
TTITLE9=When We Were Kids
TTITLE10=Sometimes
TTITLE11=Something In The Water
TTITLE12=Imagination
TTITLE13=Blue
TTITLE14=Christrmas Time
TTITLE15=The Best Years
EXTD=YEAR: 2009
EXTT0=
EXTT1=
EXTT2=
EXTT3=
EXTT4=
EXTT5=
EXTT6=
EXTT7=
EXTT8=
EXTT9=
EXTT10=
EXTT11=
EXTT12=
EXTT13=
EXTT14=
EXTT15=
PLAYORDER=
